<svg aria-hidden="true" style="position: absolute; width: 0; height: 0; overflow: hidden;" version="1.1" xmlns="http://www.w3.org/2000/svg" xmlns:xlink="http://www.w3.org/1999/xlink">
<defs>
<symbol id="icon-close" viewBox="0 0 20 20">
<path d="M10 8.586l-7.071-7.071-1.414 1.414 7.071 7.071-7.071 7.071 1.414 1.414 7.071-7.071 7.071 7.071 1.414-1.414-7.071-7.071 7.071-7.071-1.414-1.414-7.071 7.071z"></path>
</symbol>
<symbol id="icon-menu" viewBox="0 0 20 20">
<path d="M0 3h20v2h-20v-2zM0 9h20v2h-20v-2zM0 15h20v2h-20v-2z"></path>
</symbol>
<symbol id="icon-keyboard_arrow_down" viewBox="0 0 24 24">
<path d="M7.406 8.578l4.594 4.594 4.594-4.594 1.406 1.406-6 6-6-6z"></path>
</symbol>
<symbol id="icon-keyboard_arrow_left" viewBox="0 0 24 24">
<path d="M15.422 16.594l-1.406 1.406-6-6 6-6 1.406 1.406-4.594 4.594z"></path>
</symbol>
<symbol id="icon-keyboard_arrow_right" viewBox="0 0 24 24">
<path d="M8.578 16.594l4.594-4.594-4.594-4.594 1.406-1.406 6 6-6 6z"></path>
</symbol>
<symbol id="icon-dehaze" viewBox="0 0 24 24">
<path d="M2.016 5.484h19.969v2.016h-19.969v-2.016zM2.016 10.5h19.969v2.016h-19.969v-2.016zM2.016 15.516h19.969v1.969h-19.969v-1.969z"></path>
</symbol>

<symbol id="smileface"  viewBox="0 0 34.25 34.25" ><path d="M17.125,0C7.668,0,0,7.667,0,17.125S7.668,34.25,17.125,34.25c9.459,0,17.125-7.667,17.125-17.125S26.584,0,17.125,0z
		 M23.445,11.422c1.354,0,2.453,1.099,2.453,2.453s-1.1,2.453-2.453,2.453c-1.354,0-2.453-1.099-2.453-2.453
		S22.091,11.422,23.445,11.422z M10.804,11.422c1.355,0,2.453,1.099,2.453,2.453s-1.098,2.453-2.453,2.453
		c-1.354,0-2.453-1.099-2.453-2.453S9.451,11.422,10.804,11.422z M26.365,23.079c-2.098,3.046-5.553,4.864-9.24,4.864
		c-3.689,0-7.145-1.818-9.24-4.865c-0.47-0.682-0.297-1.616,0.386-2.086c0.683-0.471,1.616-0.297,2.086,0.386
		c1.536,2.233,4.067,3.565,6.769,3.565s5.231-1.332,6.771-3.565c0.47-0.681,1.402-0.854,2.086-0.385
		C26.662,21.463,26.834,22.396,26.365,23.079z"/></symbol>

<symbol id="email"  viewBox="0 0 512 512" >		<polygon points="339.392,258.624 512,367.744 512,144.896 		"/>
<polygon points="0,144.896 0,367.744 172.608,258.624 		"/>
<path d="M480,80H32C16.032,80,3.36,91.904,0.96,107.232L256,275.264l255.04-168.032C508.64,91.904,495.968,80,480,80z"/>
<path d="M310.08,277.952l-45.28,29.824c-2.688,1.76-5.728,2.624-8.8,2.624c-3.072,0-6.112-0.864-8.8-2.624l-45.28-29.856
			L1.024,404.992C3.488,420.192,16.096,432,32,432h448c15.904,0,28.512-11.808,30.976-27.008L310.08,277.952z"/></symbol>
			<symbol id="chat"  viewBox="0 0 60 60" >		<polygon points="339.392,258.624 512,367.744 512,144.896 		"/>
<path d="M30,1.5c-16.542,0-30,12.112-30,27c0,5.204,1.646,10.245,4.768,14.604c-0.591,6.537-2.175,11.39-4.475,13.689
	c-0.304,0.304-0.38,0.769-0.188,1.153C0.275,58.289,0.625,58.5,1,58.5c0.046,0,0.092-0.003,0.139-0.01
	c0.405-0.057,9.813-1.411,16.618-5.339C21.621,54.71,25.737,55.5,30,55.5c16.542,0,30-12.112,30-27S46.542,1.5,30,1.5z M16,32.5
	c-2.206,0-4-1.794-4-4s1.794-4,4-4s4,1.794,4,4S18.206,32.5,16,32.5z M30,32.5c-2.206,0-4-1.794-4-4s1.794-4,4-4s4,1.794,4,4
	S32.206,32.5,30,32.5z M44,32.5c-2.206,0-4-1.794-4-4s1.794-4,4-4s4,1.794,4,4S46.206,32.5,44,32.5z"/></symbol>


<symbol id="icon-theater"   viewBox="0 -36 511.99929 511">
<path d="m505.429688 29.078125c-1.699219-1.167969-42.835938-28.578125-143.597657-28.578125-100.765625 0-141.90625 27.410156-143.609375 28.578125-4.109375 2.820313-6.566406 7.484375-6.566406 12.46875v30.035156c-22.988281 4.554688-53.660156 13.675781-91.703125 31.523438-91.222656 42.800781-116.824219 85.089843-117.871094 86.867187-2.523437 4.300782-2.769531 9.566406-.652343 14.082032l61.449218 130.96875c30.203125 64.375 94.492188 103.574218 162.914063 103.574218 15.15625 0 30.519531-1.921875 45.753906-5.921875.046875-.011719.09375-.023437.140625-.039062h.003906c1.726563-.472657 3.359375-1.246094 4.8125-2.285157 26.785156-19.148437 46.929688-44.507812 59.625-72.902343 7.433594 2.40625 15.097656 4.355469 22.960938 5.800781.453125.085938.90625.148438 1.367187.1875h.003907c.453124.042969.910156.0625 1.367187.0625.917969 0 1.832031-.082031 2.734375-.25 85.433594-15.71875 147.4375-90.171875 147.4375-177.035156v-144.667969c0-4.984375-2.457031-9.648437-6.570312-12.46875zm-415.179688 293.101563-57.59375-122.757813c10.039062-11.902344 38.195312-39.878906 100.136719-68.941406 61.953125-29.0625 101.457031-32.832031 117.023437-32.941407l57.59375 122.757813c30.300782 64.585937 10.820313 141.417969-46.238281 183.816406-69.078125 16.777344-140.621094-17.347656-170.921875-81.933593zm391.511719-135.964844c0 71.34375-50.269531 132.625-119.933594 146.769531-5.355469-1.085937-10.597656-2.457031-15.710937-4.085937 7.265624-28.152344 7.738281-58.0625.726562-87.113282 18.746094-5.199218 39.695312-.457031 54.402344 14.25 2.953125 2.953125 6.824218 4.429688 10.691406 4.429688s7.738281-1.476563 10.691406-4.429688c5.902344-5.902344 5.902344-15.472656 0-21.378906-23.0625-23.058594-56.070312-30.257812-85.34375-21.59375-.804687-1.875-1.628906-3.746094-2.503906-5.609375l-24.515625-52.257813c12.210937-.101562 23.679687-4.894531 32.324219-13.542968 5.902344-5.902344 5.902344-15.476563 0-21.378906-5.902344-5.902344-15.476563-5.902344-21.378906 0-3.027344 3.027343-7.050782 4.695312-11.332032 4.695312-4.277344 0-8.300781-1.667969-11.328125-4.695312-1.867187-1.863282-4.097656-3.136719-6.460937-3.824219l-18.753906-39.964844c-2.117188-4.515625-6.320313-7.691406-11.238282-8.5-.734375-.121094-7.539062-1.148437-20.207031-.417969v-16.976562c14.023437-6.472656 51.332031-19.855469 119.941406-19.855469 68.421875 0 105.789063 13.371094 119.929688 19.882813zm0 0"/>
<path d="m420.21875 155.203125c12.359375 0 23.976562-4.808594 32.714844-13.546875 5.902344-5.90625 5.902344-15.476562 0-21.382812-5.90625-5.902344-15.476563-5.902344-21.382813 0-3.027343 3.027343-7.050781 4.695312-11.328125 4.695312-4.28125 0-8.304687-1.667969-11.332031-4.695312-5.902344-5.902344-15.476563-5.902344-21.382813 0-5.902343 5.90625-5.902343 15.476562 0 21.382812 8.738282 8.738281 20.355469 13.546875 32.710938 13.546875zm0 0"/>
<path d="m167.078125 248.847656c2.839844-7.851562-1.226563-16.519531-9.078125-19.355468-11.625-4.199219-24.183594-3.621094-35.371094 1.628906s-19.660156 14.539062-23.859375 26.160156c-2.835937 7.851562 1.230469 16.519531 9.082031 19.355469 1.695313.613281 3.429688.902343 5.136719.902343 6.1875 0 11.996094-3.828124 14.21875-9.984374 1.453125-4.023438 4.390625-7.242188 8.265625-9.0625 3.875-1.816407 8.226563-2.015626 12.25-.5625 7.851563 2.835937 16.519532-1.226563 19.355469-9.082032zm0 0"/>
<path d="m207.742188 229.773438c1.699218.609374 3.429687.902343 5.136718.902343 6.1875 0 11.996094-3.828125 14.21875-9.984375 1.457032-4.027344 4.390625-7.246094 8.265625-9.0625 3.875-1.820312 8.226563-2.019531 12.25-.5625 7.855469 2.835938 16.519531-1.230468 19.359375-9.082031 2.835938-7.855469-1.230468-16.519531-9.082031-19.355469-23.992187-8.667968-50.5625 3.796875-59.230469 27.785156-2.835937 7.855469 1.230469 16.519532 9.082032 19.359376zm0 0"/>
<path d="m274.355469 289.0625c2.835937-7.851562-1.230469-16.515625-9.082031-19.355469-7.851563-2.839843-16.519532 1.226563-19.355469 9.082031-10.449219 28.910157-42.472657 43.929688-71.378907 33.488282-7.855468-2.839844-16.519531 1.226562-19.355468 9.078125-2.839844 7.855469 1.226562 16.519531 9.078125 19.359375 9.617187 3.472656 19.453125 5.121094 29.136719 5.121094 35.207031 0 68.320312-21.800782 80.957031-56.773438zm0 0"/>
</symbol>
<symbol id="highfive"  viewBox="0 0 512 512"> <path d="m492.432 214.65c-19.335-13.253-44.759-9.217-59.318 7.396v-147.046c0-31.649-32.054-53.576-61.591-41.819-5.206-19.096-22.693-33.181-43.418-33.181-15.916 0-29.917 8.311-37.921 20.813-29.807-16.862-67.088 4.755-67.088 39.187v2.58c-29.253-10.374-60.005 11.457-60.005 42.42v37.116c-10.973 5.746-19.292 15.882-22.613 28.065-29.553-11.763-61.591 10.194-61.591 41.819v117.045c-14.569-16.623-39.995-20.641-59.319-7.395-20.471 14.032-25.731 42.116-11.722 62.603 45.719 66.862 42.396 62.421 44.691 64.316l56.352 46.5v1.931c0 8.284 6.716 15 15.001 15s15.001-6.716 15.001-15v-9c0-4.477-2-8.72-5.453-11.569l-60.168-49.649-40.658-59.461c-4.683-6.848-2.925-16.235 3.917-20.926 6.875-4.712 16.252-2.956 20.956 3.926l24.016 35.142c3.711 5.432 10.534 7.811 16.815 5.868 6.286-1.942 10.572-7.753 10.572-14.331v-165c0-8.271 6.729-15 15.001-15 7.81 0 15.001 6.088 15.001 15.5v89.5c0 8.284 6.716 15 15.001 15s15.001-6.716 15.001-15c0-15.155 0-108.812 0-120 0-8.271 6.729-15 15.001-15s15.001 6.729 15.001 15v120c0 8.284 6.716 15 15.001 15s15.001-6.716 15.001-15c0-9.907 0-94.37 0-105 0-8.271 6.729-15 15.001-15s15.001 6.729 15.001 15v105c0 8.284 6.716 15 15.001 15s15.001-6.716 15.001-15c0-9.956 0-39.521 0-50 0-8.271 6.729-15 15.001-15s15.001 6.729 15.001 15v142.574c0 23.353-9.095 45.307-25.609 61.819-2.814 2.813-4.394 6.628-4.394 10.607v30c0 8.284 6.716 15 15.001 15s15.001-6.716 15.001-15v-24.026c19.395-21.572 30.002-49.17 30.002-78.4v-142.574c0-21.662-15.387-39.794-35.806-44.052 0-15.206 0-159.602 0-162.948 0-8.271 6.729-15 15.001-15s15.001 6.729 15.001 15v137c0 8.284 6.716 15 15.001 15s15.001-6.716 15.001-15v-106.5c0-9.478 7.262-15.5 15.001-15.5 8.271 0 15.001 6.729 15.001 15v195c0 6.578 4.286 12.389 10.572 14.331s13.104-.437 16.815-5.868l24.016-35.142c4.703-6.881 14.08-8.638 20.955-3.926 6.843 4.691 8.601 14.078 3.918 20.926l-40.789 59.654-54.385 47.754c-3.243 2.848-5.103 6.955-5.103 11.271v118c0 8.284 6.716 15 15.001 15s15.001-6.716 15.001-15v-111.209c55.235-48.5 51.674-45.112 53.187-47.324l41.856-61.213c14.016-20.488 8.757-48.571-11.715-62.604zm-299.338-76.702v-32.948c0-8.271 6.729-15 15.001-15s15.001 6.729 15.001 15v52.116c-.431.226-.857.458-1.28.697-6.418-10.026-16.692-17.356-28.722-19.865zm60.004 15c0-31.092 0-62.029 0-92.948 0-8.271 6.729-15 15.001-15s15.001 6.729 15.001 15v114.937c-6.279-11.112-17.137-19.307-30.002-21.989z"/><path d="m71.378 92.606c5.857 5.858 15.357 5.859 21.215 0 5.859-5.858 5.859-15.355 0-21.213l-21.002-21c-5.858-5.858-15.357-5.858-21.215 0-5.859 5.858-5.859 15.355 0 21.213z"/><path d="m130.26 49.623c2.145 8.002 10.37 12.751 18.374 10.606 8.003-2.144 12.751-10.369 10.607-18.371l-7.68-28.66c-2.145-8.003-10.367-12.75-18.374-10.606-8.003 2.144-12.751 10.369-10.607 18.371z"/><path d="m13.177 151.569 28.663 7.68c8.006 2.145 16.23-2.607 18.374-10.606 2.144-8.002-2.605-16.227-10.607-18.371l-28.663-7.68c-7.999-2.145-16.229 2.604-18.374 10.606-2.144 8.002 2.605 16.227 10.607 18.371z"/></symbol>


<symbol id="icon-adobeaftereffects" viewBox="0 0 32 32">
<path fill="#d291ff" style="fill: var(--color1, #d291ff)" d="M0 0.4v31.2h32v-31.2zM1.333 1.733h29.333v28.533h-29.333zM9.045 18.067l-1.056 3.981c-0.023 0.111-0.067 0.151-0.197 0.151h-1.957c-0.133 0-0.155-0.047-0.133-0.2l3.787-13.244c0.067-0.24 0.109-0.433 0.131-1.093 0-0.088 0.044-0.133 0.111-0.133h2.795c0.088 0 0.133 0.024 0.155 0.133l4.244 14.36c0.021 0.109 0 0.173-0.111 0.173h-2.2c-0.109 0-0.173-0.040-0.196-0.128l-1.1-4.003zM12.787 15.901c-0.373-1.475-1.28-4.707-1.608-6.267h-0.021c-0.285 1.56-1.008 4.197-1.56 6.267zM19.933 17.267c0.023 1.804 0.88 3.013 2.904 3.013 0.792 0 1.471-0.104 2.173-0.413 0.089-0.043 0.156-0.020 0.156 0.089v1.672c0 0.133-0.044 0.2-0.133 0.267-0.703 0.352-1.579 0.507-2.68 0.507-3.52 0-4.84-2.596-4.84-5.5 0-3.147 1.629-5.72 4.489-5.72 2.904 0 3.916 2.444 3.916 4.423 0 0.64-0.047 1.168-0.113 1.409-0.023 0.109-0.067 0.147-0.176 0.169-0.264 0.044-1.056 0.088-2.223 0.088zM22.64 15.433c0.683 0 0.924 0 0.989-0.021 0-0.091 0.023-0.167 0.023-0.232 0-0.727-0.355-2.059-1.741-2.059-1.276 0-1.827 1.123-1.957 2.309z"></path>
</symbol>

<symbol id="icon-adobedreamweaver" viewBox="0 0 32 32">
<path fill="#35fa00" style="fill: var(--color2, #35fa00)" d="M0 0.4v31.2h32v-31.2zM1.333 1.733h29.333v28.533h-29.333zM4.167 7.747c0-0.112 0.023-0.156 0.155-0.177 0.507-0.023 1.96-0.067 3.463-0.067 4.467 0 6.688 2.883 6.688 7.107 0 5.873-3.853 7.653-6.82 7.653-1.123 0-2.752-0.021-3.347-0.043-0.087 0-0.131-0.067-0.131-0.176zM6.567 20.107c0.373 0.024 0.704 0.045 1.123 0.045 2.464 0 4.289-1.739 4.312-5.477 0.027-3.653-1.867-5.060-4.217-5.060-0.463 0-0.836 0.027-1.209 0.051zM23.484 22.2c-0.155 0-0.197-0.060-0.22-0.191-0.66-3.673-1.209-6.271-1.453-8.075h-0.021c-0.285 1.635-0.813 4.343-1.693 8.104-0.044 0.133-0.088 0.169-0.197 0.169h-2.156c-0.155 0-0.197-0.021-0.24-0.153l-2.356-10.508c-0.021-0.089 0.024-0.177 0.156-0.177h2.156c0.088 0 0.155 0.031 0.176 0.12 0.836 4.728 1.187 7.179 1.32 8.147h0.088c0.155-1.144 0.616-3.528 1.605-8.104 0.044-0.133 0.044-0.165 0.176-0.165h2.267c0.109 0 0.131 0.053 0.153 0.164 0.771 4.333 1.276 7.067 1.408 8.168h0.067c0.213-1.408 0.507-3.307 1.445-8.192 0.023-0.088 0.044-0.141 0.155-0.141h2.027c0.088 0 0.155 0.044 0.111 0.155l-2.617 10.525c-0.020 0.111-0.040 0.155-0.195 0.155z"></path>
</symbol>
<symbol id="icon-adobeillustrator" viewBox="0 0 32 32">
<path fill="#ff7c00" style="fill: var(--color3, #ff7c00)" d="M0 0.4v31.2h32v-31.2zM1.333 1.733h29.333v28.533h-29.333zM11.1 18.067l-1.056 3.997c-0.023 0.111-0.067 0.136-0.197 0.136h-1.957c-0.133 0-0.153-0.044-0.133-0.197l3.787-13.26c0.067-0.24 0.109-0.451 0.131-1.111 0-0.088 0.044-0.133 0.111-0.133h2.795c0.088 0 0.133 0.024 0.155 0.133l4.247 14.392c0.023 0.111 0 0.176-0.111 0.176h-2.2c-0.111 0-0.176-0.027-0.197-0.115l-1.1-4.020zM14.817 15.9c-0.373-1.475-1.253-4.704-1.584-6.267h-0.023c-0.285 1.56-0.989 4.2-1.54 6.267zM20.817 8.489c0-0.857 0.593-1.364 1.364-1.364 0.813 0 1.364 0.549 1.364 1.364 0 0.88-0.573 1.364-1.387 1.364-0.8 0-1.347-0.484-1.341-1.364zM20.967 11.521c0-0.107 0.044-0.147 0.155-0.147h2.093c0.117 0 0.16 0.044 0.16 0.155v10.527c0 0.111-0.021 0.155-0.153 0.155h-2.067c-0.133 0-0.177-0.067-0.177-0.173z"></path>
</symbol>
<symbol id="icon-adobeindesign" viewBox="0 0 32 32">
<path fill="#fd3f93" style="fill: var(--color4, #fd3f93)" d="M0 0.4v31.2h32v-31.2zM1.333 1.733h29.333v28.533h-29.333zM11.7 22.024c0 0.133-0.023 0.176-0.176 0.176h-2.048c-0.133 0-0.176-0.067-0.176-0.176v-14.315c0-0.133 0.067-0.176 0.176-0.176h2.071c0.109 0 0.153 0.044 0.153 0.155zM14.060 16.861c0-3.191 2.104-5.676 5.469-5.676 0.285 0 0.44 0 0.704 0.020v-3.539c0-0.088 0.067-0.133 0.133-0.133h2.167c0.112 0 0.133 0.045 0.133 0.112v12.473c0 0.373 0 0.833 0.067 1.339 0 0.088-0.027 0.111-0.116 0.155-1.144 0.551-2.355 0.793-3.499 0.793-2.951 0-5.063-1.827-5.059-5.544zM20.233 13.363c-0.197-0.088-0.463-0.133-0.792-0.133-1.713 0-2.916 1.32-2.916 3.52 0 2.509 1.224 3.52 2.764 3.52 0.329 0 0.683-0.043 0.947-0.153z"></path>
</symbol>
<symbol id="icon-adobephotoshop" viewBox="0 0 32 32">
<path fill="#00c8ff" style="fill: var(--color5, #00c8ff)" d="M0 0.4v31.2h32v-31.2zM1.333 1.733h29.333v28.533h-29.333zM7.733 7.707c0-0.089 0.187-0.155 0.299-0.155 0.859-0.044 2.117-0.067 3.437-0.067 3.696 0 5.133 2.027 5.133 4.621 0 3.387-2.456 4.84-5.469 4.84-0.507 0-0.68-0.023-1.033-0.023v5.123c0 0.111-0.044 0.155-0.153 0.155h-2.059c-0.111 0-0.153-0.040-0.153-0.151zM10.1 14.789c0.307 0.021 0.549 0.021 1.080 0.021 1.56 0 3.027-0.549 3.027-2.661 0-1.693-1.048-2.552-2.829-2.552-0.528 0-1.033 0.021-1.276 0.044zM21.576 13.205c-1.056 0-1.408 0.528-1.408 0.968 0 0.484 0.24 0.813 1.649 1.54 2.091 1.013 2.749 1.98 2.749 3.409 0 2.133-1.627 3.28-3.827 3.28-1.168 0-2.16-0.244-2.733-0.573-0.087-0.044-0.107-0.109-0.107-0.22v-1.956c0-0.133 0.064-0.177 0.152-0.112 0.832 0.551 1.803 0.792 2.683 0.792 1.056 0 1.496-0.44 1.496-1.035 0-0.484-0.307-0.903-1.649-1.607-1.893-0.907-2.685-1.827-2.685-3.369 0-1.716 1.341-3.147 3.673-3.147 1.147 0 1.952 0.176 2.392 0.373 0.109 0.067 0.133 0.176 0.133 0.264v1.827c0 0.111-0.067 0.177-0.2 0.133-0.592-0.352-1.467-0.573-2.319-0.568z"></path>
</symbol>
<symbol id="icon-adobepremiere" viewBox="0 0 32 32">
<path fill="#ea77ff" style="fill: var(--color6, #ea77ff)" d="M0 0.4v31.2h32v-31.2zM1.333 1.733h29.333v28.533h-29.333zM8.396 7.704c0-0.088 0.023-0.155 0.133-0.155 0.857-0.044 2.111-0.067 3.431-0.067 3.696 0 5.303 2.025 5.303 4.621 0 3.387-2.452 4.84-5.465 4.84-0.507 0-0.683-0.023-1.035-0.023v5.124c0 0.111-0.044 0.155-0.153 0.155h-2.059c-0.111 0-0.155-0.044-0.155-0.155zM10.763 14.788c0.308 0.021 0.551 0.021 1.079 0.021 1.561 0 3.023-0.549 3.023-2.661 0-1.693-1.043-2.552-2.825-2.552-0.528 0-1.033 0.021-1.276 0.044zM19.296 13.577c0-0.153 0-0.549-0.065-1.297 0-0.111 0.015-0.133 0.103-0.176 1.445-0.572 3.119-0.91 4.87-0.924l0.006-0c0.109 0 0.153 0.021 0.153 0.132v1.936c0 0.109-0.035 0.132-0.145 0.132-0.142-0.009-0.308-0.015-0.476-0.015-0.728 0-1.431 0.102-2.098 0.292l0.054-0.013v8.401c0 0.111-0.045 0.155-0.155 0.155h-2.093c-0.109 0-0.153-0.044-0.153-0.155z"></path>
</symbol>
<symbol id="icon-adobexd" viewBox="0 0 32 32">
<path fill="#ff2bc2" style="fill: var(--color7, #ff2bc2)" d="M26.333 0.4h-20.667c-3.133 0-5.667 2.533-5.667 5.667v19.867c0 3.133 2.533 5.667 5.667 5.667h20.667c3.133 0 5.667-2.533 5.667-5.667v-19.867c0-3.133-2.533-5.667-5.667-5.667zM30.653 25.413c0 0.007 0 0.015 0 0.023 0 2.667-2.16 4.828-4.826 4.831h-19.654c-2.667 0-4.84-2.173-4.84-4.84v-18.853c0-2.667 2.173-4.84 4.84-4.84h19.64c2.673 0 4.84 2.167 4.84 4.84v0zM12.653 15l3.733 7.173c0.067 0.107 0.027 0.213-0.080 0.213h-2.32c-0.147 0-0.213-0.040-0.28-0.173-0.853-1.76-1.72-3.52-2.613-5.413h-0.027c-0.8 1.787-1.68 3.667-2.533 5.427-0.067 0.107-0.133 0.147-0.24 0.147h-2.2c-0.133 0-0.147-0.107-0.080-0.187l3.653-6.96-3.533-7.040c-0.080-0.107 0-0.187 0.080-0.187h2.293c0.133 0 0.187 0.027 0.24 0.147 0.84 1.76 1.693 3.573 2.493 5.347h0.027c0.773-1.76 1.627-3.587 2.453-5.333 0.067-0.107 0.107-0.173 0.24-0.173h2.147c0.107 0 0.147 0.080 0.080 0.187zM17.040 17.173c0-3.107 2.067-5.533 5.347-5.533 0.28 0 0.427 0 0.693 0.027v-3.533c0-0.080 0.067-0.133 0.133-0.133h2.107c0.107 0 0.133 0.040 0.133 0.107v12.24c0 0.36 0 0.813 0.067 1.307 0 0.080-0.027 0.107-0.107 0.147-1.12 0.533-2.293 0.773-3.413 0.773-2.893 0.013-4.96-1.773-4.96-5.4zM23.080 13.76c-0.187-0.080-0.453-0.133-0.773-0.133-1.68 0-2.853 1.293-2.853 3.44 0 2.453 1.2 3.44 2.707 3.44 0.32 0 0.667-0.040 0.92-0.147z"></path>
</symbol>
<symbol id="icon-bootstrap" viewBox="0 0 32 32">
<path fill="#563d7c" style="fill: var(--color8, #563d7c)" d="M26.667 0h-21.333c-2.943 0.008-5.325 2.391-5.333 5.333v21.333c0 2.933 2.4 5.333 5.333 5.333h21.333c2.933 0 5.333-2.4 5.333-5.333v-21.333c0-2.933-2.4-5.333-5.333-5.333zM23.751 22.473c-0.267 0.643-0.689 1.209-1.231 1.645-0.56 0.453-1.269 0.827-2.143 1.093-0.872 0.271-1.909 0.407-3.111 0.407h-8.576v-18.667h9.069c1.677 0 3.021 0.377 4.027 1.147 1.013 0.773 1.517 1.925 1.517 3.48 0 0.94-0.229 1.747-0.691 2.413-0.459 0.663-1.12 1.181-1.973 1.541v0.061c1.139 0.24 2.020 0.78 2.6 1.62s0.877 1.901 0.877 3.183c0 0.717-0.139 1.4-0.4 2.037zM20.049 17.873c-0.547-0.5-1.315-0.744-2.307-0.744h-5.763v5.824h5.779c0.987 0 1.76-0.256 2.307-0.773 0.547-0.513 0.827-1.245 0.827-2.187-0.009-0.92-0.28-1.632-0.827-2.12zM19.249 14.109c0.528-0.448 0.787-1.089 0.787-1.925 0-0.939-0.233-1.605-0.707-1.987-0.469-0.38-1.147-0.577-2.037-0.577h-5.333v5.151h5.333c0.777 0 1.44-0.227 1.957-0.661z"></path>
</symbol>
<symbol id="icon-css3" viewBox="0 0 32 32">
<path fill="#1572b6" style="fill: var(--color9, #1572b6)" d="M2 0h28l-2.547 28.751-11.484 3.249-11.42-3.251zM24.787 5.884l-17.573-0.004 0.284 3.496 13.5 0.003-0.34 3.621h-8.853l0.32 3.431h8.243l-0.488 4.697-3.88 1.072-3.941-1.080-0.251-2.813h-3.48l0.387 5.14 7.287 2.271 7.164-2.040z"></path>
</symbol>
<symbol id="icon-html5" viewBox="0 0 32 32">
<path fill="#e34f26" style="fill: var(--color10, #e34f26)" d="M2 0h28l-2.547 28.751-11.484 3.249-11.419-3.251zM11.375 13l-0.309-3.624 13.412 0.004 0.307-3.496-17.568-0.004 0.931 10.68h12.168l-0.435 4.568-3.88 1.072-3.94-1.080-0.251-2.813h-3.479l0.44 5.561 7.229 1.933 7.172-1.924 0.992-10.876z"></path>
</symbol>
<symbol id="icon-javascript" viewBox="0 0 32 32">
<path fill="#f7df1e" style="fill: var(--color11, #f7df1e)" d="M0 0h32v32h-32zM29.379 24.368c-0.233-1.46-1.184-2.687-4.004-3.831-0.981-0.46-2.072-0.78-2.396-1.52-0.121-0.44-0.14-0.68-0.061-0.94 0.2-0.861 1.22-1.12 2.020-0.88 0.52 0.16 1 0.56 1.301 1.2 1.379-0.901 1.379-0.901 2.34-1.5-0.36-0.56-0.539-0.801-0.781-1.040-0.84-0.94-1.959-1.42-3.779-1.379l-0.94 0.119c-0.901 0.22-1.76 0.7-2.28 1.34-1.52 1.721-1.081 4.721 0.759 5.961 1.82 1.36 4.481 1.659 4.821 2.94 0.32 1.56-1.16 2.060-2.621 1.88-1.081-0.24-1.68-0.781-2.34-1.781l-2.44 1.401c0.28 0.64 0.6 0.919 1.080 1.479 2.32 2.341 8.12 2.221 9.161-1.339 0.039-0.12 0.32-0.94 0.099-2.2zM17.401 14.708h-2.997c0 2.584-0.012 5.152-0.012 7.74 0 1.643 0.084 3.151-0.184 3.615-0.44 0.919-1.573 0.801-2.088 0.64-0.528-0.261-0.796-0.621-1.107-1.14-0.084-0.14-0.147-0.261-0.169-0.261l-2.433 1.5c0.407 0.84 1 1.563 1.765 2.023 1.14 0.68 2.672 0.9 4.276 0.54 1.044-0.301 1.944-0.921 2.415-1.881 0.68-1.24 0.536-2.76 0.529-4.461 0.016-2.739 0-5.479 0-8.239z"></path>
</symbol>
<symbol id="icon-jquery" viewBox="0 0 32 32">
<path fill="#0769ad" style="fill: var(--color12, #0769ad)" d="M2.045 7.832c-2.831 4.067-2.48 9.356-0.316 13.675 0.049 0.105 0.104 0.205 0.157 0.305 0.031 0.069 0.065 0.133 0.103 0.199 0.017 0.037 0.041 0.076 0.063 0.111 0.035 0.069 0.072 0.136 0.108 0.203l0.209 0.353c0.039 0.065 0.076 0.129 0.12 0.195 0.073 0.125 0.16 0.249 0.236 0.375 0.035 0.052 0.067 0.104 0.105 0.156 0.148 0.232 0.284 0.425 0.428 0.612l-0.015-0.020c0.104 0.143 0.208 0.281 0.32 0.42 0.036 0.051 0.076 0.101 0.113 0.152l0.295 0.359c0.036 0.041 0.072 0.089 0.111 0.132 0.131 0.157 0.269 0.311 0.408 0.465 0 0.003 0.004 0.005 0.007 0.009 0.172 0.217 0.358 0.409 0.56 0.582l0.006 0.005c0.107 0.109 0.213 0.219 0.327 0.325l0.135 0.129c0.148 0.139 0.296 0.277 0.452 0.411 0.003 0 0.004 0.003 0.007 0.004l0.076 0.067c0.136 0.119 0.273 0.237 0.413 0.347l0.167 0.14c0.113 0.091 0.231 0.177 0.347 0.267l0.181 0.139c0.124 0.093 0.256 0.185 0.383 0.276 0.047 0.033 0.093 0.067 0.141 0.097l0.039 0.031 0.375 0.247 0.16 0.107c0.196 0.125 0.391 0.244 0.584 0.361 0.056 0.028 0.112 0.059 0.164 0.091 0.144 0.083 0.293 0.167 0.439 0.244 0.080 0.045 0.163 0.084 0.245 0.125 0.1 0.056 0.204 0.111 0.311 0.167 0.029 0.009 0.054 0.019 0.077 0.032l-0.002-0.001c0.044 0.020 0.085 0.041 0.128 0.063 0.16 0.080 0.327 0.156 0.5 0.232 0.032 0.013 0.067 0.027 0.101 0.045 0.192 0.084 0.384 0.164 0.583 0.243 0.045 0.013 0.093 0.036 0.14 0.053 0.18 0.068 0.365 0.137 0.548 0.203l0.067 0.024c0.204 0.069 0.405 0.136 0.612 0.2 0.048 0.013 0.097 0.031 0.148 0.044 0.212 0.064 0.417 0.14 0.631 0.181 13.68 2.493 17.656-8.225 17.656-8.225-3.34 4.349-9.267 5.496-14.88 4.22-0.208-0.048-0.416-0.115-0.625-0.176-0.382-0.11-0.633-0.192-0.882-0.28l0.126 0.039-0.083-0.032c-0.181-0.061-0.356-0.129-0.533-0.197-0.034-0.015-0.082-0.033-0.132-0.050l-0.015-0.004c-0.196-0.079-0.387-0.16-0.576-0.244-0.041-0.013-0.076-0.032-0.117-0.048-0.35-0.155-0.508-0.231-0.665-0.308l0.184 0.081c-0.049-0.021-0.093-0.044-0.141-0.069-0.125-0.059-0.251-0.125-0.373-0.189-0.114-0.054-0.196-0.097-0.276-0.142l0.027 0.014c-0.151-0.080-0.301-0.167-0.452-0.249-0.045-0.032-0.097-0.059-0.149-0.088-0.289-0.169-0.479-0.288-0.668-0.409l0.084 0.050c-0.064-0.040-0.115-0.075-0.165-0.111l0.008 0.006c-0.172-0.106-0.308-0.197-0.44-0.291l0.024 0.017c-0.047-0.031-0.089-0.064-0.137-0.097-0.17-0.118-0.298-0.211-0.424-0.306l0.032 0.023c-0.056-0.045-0.116-0.088-0.176-0.133-0.117-0.092-0.236-0.18-0.353-0.277l-0.157-0.125c-0.174-0.14-0.319-0.263-0.461-0.388l0.016 0.013c-0.015-0.014-0.031-0.028-0.048-0.039l-0.001-0.001-0.463-0.421-0.133-0.125c-0.109-0.111-0.221-0.217-0.333-0.327l-0.129-0.133c-0.138-0.137-0.273-0.278-0.404-0.421l-0.008-0.009-0.020-0.021c-0.141-0.155-0.279-0.312-0.417-0.472-0.036-0.041-0.069-0.085-0.107-0.129l-0.301-0.369c-0.105-0.131-0.254-0.326-0.4-0.522l-0.054-0.075c-3.113-4.251-4.24-10.117-1.748-14.929zM10.828 4.407c-2.052 2.945-1.936 6.884-0.339 9.999 0.296 0.584 0.596 1.078 0.928 1.547l-0.025-0.038c0.307 0.44 0.645 0.96 1.056 1.315 0.143 0.163 0.297 0.32 0.459 0.479l0.12 0.12c0.152 0.147 0.308 0.291 0.467 0.433l0.020 0.017c0.16 0.141 0.34 0.29 0.524 0.435l0.028 0.021c0.045 0.031 0.084 0.067 0.128 0.097 0.187 0.144 0.375 0.283 0.569 0.42l0.020 0.012c0.083 0.060 0.171 0.115 0.264 0.173 0.037 0.024 0.080 0.056 0.12 0.080 0.141 0.091 0.28 0.176 0.423 0.263 0.023 0.009 0.043 0.021 0.064 0.031 0.12 0.073 0.251 0.144 0.376 0.209 0.044 0.027 0.087 0.047 0.132 0.072 0.089 0.044 0.177 0.091 0.263 0.136l0.043 0.019c0.18 0.088 0.364 0.171 0.544 0.253 0.045 0.017 0.084 0.032 0.123 0.051 0.148 0.064 0.299 0.125 0.447 0.183 0.067 0.023 0.129 0.049 0.192 0.069 0.136 0.051 0.279 0.097 0.413 0.144l0.187 0.060c0.195 0.060 0.392 0.139 0.597 0.172 10.56 1.751 13.005-6.383 13.005-6.383-2.201 3.168-6.461 4.677-11.001 3.499-0.277-0.071-0.476-0.13-0.673-0.195l0.076 0.022c-0.064-0.017-0.12-0.037-0.181-0.056-0.139-0.048-0.281-0.095-0.416-0.145l-0.192-0.072c-0.149-0.060-0.301-0.116-0.447-0.18-0.045-0.020-0.087-0.033-0.121-0.053-0.187-0.084-0.375-0.167-0.556-0.256l-0.275-0.143-0.159-0.080c-0.123-0.064-0.236-0.131-0.353-0.2-0.033-0.016-0.060-0.031-0.086-0.047l0.003 0.002c-0.141-0.088-0.288-0.173-0.423-0.264-0.045-0.025-0.087-0.056-0.129-0.083l-0.277-0.181c-0.192-0.133-0.38-0.277-0.569-0.416-0.043-0.039-0.084-0.071-0.125-0.105-1.996-1.569-3.571-3.715-4.317-6.144-0.787-2.525-0.613-5.357 0.745-7.656zM18.213 1.845c-1.211 1.776-1.327 3.981-0.493 5.94 0.885 2.080 2.696 3.713 4.805 4.487 0.087 0.033 0.171 0.061 0.26 0.093l0.117 0.036c0.123 0.039 0.247 0.084 0.373 0.112 5.835 1.125 7.413-2.996 7.839-3.601-1.389 1.995-3.719 2.473-6.576 1.779-0.279-0.070-0.509-0.143-0.732-0.228l0.044 0.015c-0.337-0.119-0.609-0.233-0.873-0.361l0.050 0.022c-0.55-0.269-1.022-0.562-1.462-0.896l0.021 0.016c-2.56-1.939-4.145-5.64-2.476-8.655z"></path>
</symbol>

<symbol id="icon-php" viewBox="0 0 32 32">
<path fill="#777bb4" style="fill: var(--color13, #777bb4)" d="M9.347 13.609h-1.259l-0.687 3.531h1.117c0.741 0 1.293-0.14 1.656-0.419 0.363-0.28 0.607-0.745 0.733-1.399 0.123-0.627 0.067-1.069-0.165-1.327-0.233-0.257-0.697-0.387-1.396-0.387zM16 7.584c-8.836 0-16 3.768-16 8.416s7.164 8.417 16 8.417 16-3.769 16-8.417-7.164-8.416-16-8.416zM11.653 17.519c-0.348 0.333-0.767 0.584-1.223 0.735-0.448 0.144-1.020 0.219-1.713 0.219h-1.575l-0.436 2.241h-1.837l1.64-8.435h3.533c1.063 0 1.837 0.279 2.325 0.837 0.488 0.557 0.635 1.336 0.44 2.336-0.082 0.425-0.223 0.803-0.416 1.148l0.010-0.019c-0.191 0.34-0.44 0.653-0.748 0.937zM17.019 18.472l0.724-3.732c0.084-0.424 0.052-0.715-0.091-0.868-0.143-0.155-0.448-0.232-0.916-0.232h-1.456l-0.939 4.833h-1.824l1.64-8.436h1.823l-0.436 2.243h1.624c1.023 0 1.727 0.179 2.115 0.535s0.504 0.933 0.351 1.732l-0.763 3.925zM27.148 15.452c-0.080 0.425-0.221 0.803-0.416 1.148l0.010-0.018c-0.191 0.34-0.44 0.653-0.748 0.937-0.338 0.323-0.746 0.574-1.2 0.728l-0.023 0.007c-0.448 0.144-1.020 0.219-1.715 0.219h-1.573l-0.436 2.243h-1.837l1.64-8.435h3.532c1.063 0 1.837 0.279 2.325 0.837 0.488 0.556 0.636 1.335 0.441 2.335zM23.688 13.609h-1.257l-0.688 3.531h1.117c0.743 0 1.295-0.14 1.656-0.419 0.363-0.28 0.607-0.745 0.735-1.399 0.123-0.627 0.065-1.069-0.167-1.327s-0.699-0.387-1.396-0.387z"></path>
</symbol>
<symbol id="icon-visualstudiocode" viewBox="0 0 32 32">
<path fill="#007acc" style="fill: var(--color14, #007acc)" d="M30.867 3.449l-6.587-3.169c-0.253-0.124-0.55-0.197-0.864-0.197-0.55 0-1.049 0.223-1.409 0.584v0l-12.613 11.507-5.493-4.171c-0.221-0.169-0.501-0.271-0.805-0.271-0.346 0-0.661 0.132-0.897 0.348l-1.762 1.602c-0.269 0.245-0.436 0.596-0.436 0.987s0.167 0.741 0.434 0.984l0.001 0.001 4.764 4.347-4.764 4.347c-0.268 0.245-0.435 0.596-0.435 0.985s0.168 0.742 0.435 0.986l0.001 0.001 1.764 1.601c0.236 0.215 0.551 0.347 0.896 0.347 0.304 0 0.584-0.102 0.808-0.273l-0.003 0.002 5.493-4.171 12.613 11.507c0.36 0.361 0.858 0.584 1.408 0.584 0.314 0 0.611-0.073 0.876-0.203l-0.012 0.005 6.589-3.169c0.675-0.331 1.131-1.013 1.131-1.801 0-0.001 0-0.001 0-0.002v0-21.495c0-0 0-0 0-0 0-0.789-0.457-1.472-1.122-1.797l-0.012-0.005zM24.005 23.264l-9.571-7.264 9.571-7.264z"></path>
</symbol>
<symbol id="icon-mysql" viewBox="0 0 32 32">
<path fill="#4479a1" style="fill: var(--color1, #4479a1)" d="M21.873 7.568c-0.153 0-0.257 0.019-0.365 0.044v0.017h0.019c0.072 0.139 0.195 0.24 0.285 0.364 0.072 0.143 0.133 0.285 0.205 0.427l0.019-0.020c0.125-0.088 0.187-0.229 0.187-0.444-0.053-0.063-0.061-0.125-0.107-0.187-0.053-0.089-0.168-0.133-0.243-0.201zM7.693 25.16h-1.236c-0.040-2.083-0.164-4.040-0.36-5.88h-0.011l-1.88 5.88h-0.94l-1.867-5.88h-0.013c-0.137 1.764-0.224 3.724-0.26 5.88h-1.127c0.073-2.621 0.256-5.080 0.547-7.373h1.533l1.78 5.419h0.011l1.796-5.419h1.46c0.323 2.687 0.512 5.147 0.567 7.373zM13.049 19.72c-0.504 2.727-1.168 4.711-1.989 5.947-0.643 0.955-1.347 1.431-2.111 1.431-0.204 0-0.453-0.061-0.755-0.184v-0.659c0.147 0.023 0.32 0.035 0.515 0.035 0.357 0 0.644-0.1 0.863-0.296 0.263-0.24 0.393-0.509 0.393-0.807 0-0.207-0.103-0.627-0.307-1.259l-1.352-4.208h1.213l0.969 3.147c0.219 0.715 0.311 1.213 0.273 1.497 0.533-1.419 0.904-2.969 1.113-4.644zM29.483 25.16h-3.507v-7.373h1.18v6.467h2.327zM25.056 25.34l-1.355-0.667c0.12-0.101 0.236-0.211 0.34-0.333 0.577-0.675 0.864-1.677 0.864-3.004 0-2.44-0.957-3.661-2.873-3.661-0.939 0-1.672 0.309-2.2 0.929-0.573 0.677-0.861 1.675-0.861 2.993 0 1.296 0.253 2.248 0.765 2.853 0.467 0.547 1.169 0.82 2.111 0.82 0.352 0 0.675-0.044 0.967-0.131l1.767 1.029zM20.667 23.684c-0.3-0.48-0.449-1.253-0.449-2.315 0-1.857 0.565-2.787 1.693-2.787 0.591 0 1.027 0.223 1.303 0.667 0.299 0.483 0.448 1.248 0.448 2.297 0 1.872-0.565 2.811-1.693 2.811-0.593 0-1.027-0.223-1.301-0.673zM18.456 23.117c0 0.627-0.229 1.141-0.688 1.541s-1.071 0.6-1.845 0.6c-0.724 0-1.419-0.229-2.097-0.687l0.316-0.635c0.584 0.293 1.111 0.437 1.587 0.437 0.443 0 0.791-0.097 1.044-0.293 0.251-0.196 0.4-0.472 0.4-0.82 0-0.44-0.307-0.813-0.864-1.127-0.517-0.284-1.551-0.876-1.551-0.876-0.563-0.409-0.843-0.848-0.843-1.569 0-0.6 0.209-1.080 0.627-1.447 0.42-0.371 0.96-0.553 1.627-0.553 0.683 0 1.307 0.181 1.867 0.547l-0.284 0.635c-0.48-0.203-0.953-0.307-1.419-0.307-0.377 0-0.669 0.091-0.872 0.275-0.204 0.181-0.331 0.413-0.331 0.699 0 0.437 0.312 0.813 0.888 1.133 0.524 0.287 1.583 0.893 1.583 0.893 0.577 0.407 0.864 0.84 0.856 1.553zM30.965 15.315c-0.713-0.019-1.267 0.053-1.729 0.251-0.133 0.053-0.347 0.053-0.365 0.223 0.073 0.071 0.084 0.187 0.147 0.285 0.107 0.179 0.291 0.417 0.461 0.543 0.187 0.147 0.373 0.288 0.569 0.413 0.347 0.213 0.74 0.34 1.080 0.555 0.193 0.125 0.391 0.284 0.587 0.417 0.097 0.067 0.16 0.187 0.285 0.229v-0.027c-0.061-0.080-0.080-0.196-0.14-0.285-0.089-0.089-0.179-0.169-0.267-0.257-0.259-0.347-0.58-0.649-0.927-0.9-0.285-0.195-0.909-0.467-1.027-0.793l-0.017-0.019c0.195-0.017 0.427-0.088 0.613-0.141 0.303-0.080 0.58-0.063 0.893-0.141 0.141-0.036 0.284-0.080 0.427-0.125v-0.080c-0.16-0.16-0.28-0.377-0.445-0.527-0.453-0.393-0.956-0.776-1.472-1.097-0.28-0.179-0.635-0.293-0.929-0.445-0.107-0.053-0.285-0.080-0.347-0.169-0.16-0.195-0.253-0.453-0.367-0.685-0.256-0.491-0.507-1.033-0.729-1.551-0.16-0.349-0.257-0.697-0.453-1.017-0.92-1.516-1.916-2.435-3.448-3.333-0.329-0.187-0.724-0.267-1.141-0.365-0.223-0.011-0.445-0.027-0.667-0.036-0.147-0.063-0.288-0.232-0.413-0.313-0.507-0.32-1.819-1.013-2.192-0.096-0.24 0.579 0.356 1.149 0.563 1.443 0.153 0.204 0.347 0.437 0.453 0.667 0.063 0.155 0.080 0.313 0.143 0.475 0.141 0.392 0.276 0.829 0.463 1.196 0.097 0.187 0.204 0.383 0.329 0.551 0.072 0.097 0.195 0.143 0.223 0.303-0.125 0.181-0.133 0.445-0.205 0.667-0.32 1.009-0.195 2.257 0.259 3 0.143 0.221 0.483 0.712 0.937 0.524 0.4-0.16 0.312-0.667 0.427-1.113 0.027-0.107 0.009-0.177 0.064-0.249v0.020c0.125 0.251 0.251 0.489 0.365 0.74 0.275 0.437 0.755 0.891 1.156 1.193 0.213 0.16 0.383 0.437 0.649 0.536v-0.027h-0.020c-0.057-0.077-0.133-0.115-0.205-0.177-0.16-0.16-0.34-0.356-0.467-0.533-0.373-0.503-0.703-1.053-0.996-1.624-0.147-0.28-0.269-0.581-0.387-0.857-0.053-0.107-0.053-0.267-0.143-0.32-0.133 0.195-0.329 0.364-0.427 0.604-0.169 0.384-0.187 0.856-0.251 1.347-0.036 0.009-0.019 0-0.036 0.019-0.285-0.069-0.383-0.365-0.489-0.613-0.267-0.633-0.311-1.651-0.080-2.38 0.063-0.187 0.329-0.776 0.223-0.955-0.056-0.169-0.232-0.267-0.329-0.404-0.116-0.165-0.24-0.38-0.32-0.569-0.213-0.499-0.32-1.051-0.552-1.549-0.107-0.231-0.293-0.472-0.445-0.684-0.169-0.24-0.356-0.409-0.491-0.693-0.044-0.097-0.107-0.259-0.036-0.365 0.019-0.072 0.056-0.1 0.125-0.12 0.117-0.096 0.447 0.029 0.563 0.083 0.329 0.133 0.607 0.259 0.883 0.445 0.125 0.088 0.26 0.257 0.42 0.301h0.187c0.285 0.063 0.607 0.019 0.873 0.097 0.473 0.152 0.9 0.373 1.283 0.613 1.168 0.741 2.128 1.793 2.78 3.048 0.107 0.205 0.153 0.393 0.251 0.607 0.187 0.44 0.417 0.884 0.607 1.309 0.187 0.42 0.367 0.848 0.635 1.196 0.133 0.187 0.669 0.284 0.909 0.381 0.177 0.080 0.453 0.153 0.613 0.251 0.307 0.187 0.605 0.4 0.893 0.605 0.147 0.101 0.591 0.324 0.617 0.504z"></path>
</symbol>

<symbol id="icon-chu-logo"   viewBox="0 0 32 32"><path d="M32,16A16,16,0,0,0,16,0,16,16,0,0,0,0,16,16,16,0,0,0,16,32a15.89,15.89,0,0,0,11.16-4.54.79.79,0,0,0,0-1.13.81.81,0,0,0-1.14,0,14.3,14.3,0,1,1,3.83-6.45.44.44,0,0,0-.06.16c-.25.92-.71,1.4-2.43,1.4-.4,0-.88,0-1.43-.08a2.48,2.48,0,0,1-1.68-.75,1.06,1.06,0,0,1-.21-.83c.42-2.84,1.08-6,1.08-6.07a.79.79,0,0,0-.62-.94.8.8,0,0,0-.95.62s-.67,3.27-1.1,6.16a2.61,2.61,0,0,0,.54,2,3.93,3.93,0,0,0,2.78,1.36c.6,0,1.12.08,1.57.08a6,6,0,0,0,2-.29,3,3,0,0,0,1.88-2,.8.8,0,0,0,.08-.16A16.05,16.05,0,0,0,32,16Z"/><path d="M12.48,13.61a.81.81,0,0,0,.89-.71,5.82,5.82,0,0,0-.28-2.32A4.27,4.27,0,0,0,9.46,7.67a4,4,0,0,0-3.27,1c-2,1.7-2.88,5.06-2.88,7.47a8.42,8.42,0,0,0,1,4.35,4.07,4.07,0,0,0,3,2,4,4,0,0,0,.68,0,4.18,4.18,0,0,0,2.75-1,6.44,6.44,0,0,0,2-3.77.81.81,0,1,0-1.58-.32c-.35,1.74-1.26,3.75-3.61,3.44C5.8,20.62,4.92,19,4.92,16.13c0-2.11.79-4.94,2.31-6.25a2.38,2.38,0,0,1,2-.62,2.69,2.69,0,0,1,2.33,1.81,4,4,0,0,1,.22,1.65A.81.81,0,0,0,12.48,13.61Z"/><path d="M19,22a.79.79,0,0,0,.59,1,.65.65,0,0,0,.19,0,.81.81,0,0,0,.78-.62s.77-3.28,1.2-6.18a3.1,3.1,0,0,0-.55-2.37,2.69,2.69,0,0,0-1.86-1,4.94,4.94,0,0,0-2.95.51l.76-4.1a.79.79,0,0,0-.64-.94.81.81,0,0,0-.94.64l-2.41,12.9a.81.81,0,0,0,.65.94l.14,0a.8.8,0,0,0,.79-.66l1.18-6.31a3.33,3.33,0,0,1,3.24-1.41,1.08,1.08,0,0,1,.76.42,1.51,1.51,0,0,1,.24,1.16C19.73,18.77,19,22,19,22Z"/>
</symbol>

<symbol id="icon-littechu"  viewBox="0 0 737.45 940.22"><path d="M205.07,453.34c-31.91,0-65.41-4.22-89.51-18.09-32-18.44-49.82-51.83-51.38-96.57a212.66,212.66,0,0,1,7.16-61.49,7,7,0,0,1,13.42,4,202.14,202.14,0,0,0-6.58,57.37c1.49,40,16.41,68.49,44.36,84.58,30.89,17.77,91,21.15,160.69,9,62.1-10.78,119.64-32.16,139.93-52,1.77-1.74,3.54-3.45,5.29-5.14,44.06-42.73,75.9-73.6-15.26-213-26.41-40.39-68.63-58.29-83-63.43-18.78,27.06-104.66,112.53-178.44,143.07-35.61,14.74-94.46,12.63-96.95,12.53a7,7,0,0,1,.54-14c.58,0,58.3,2.08,91.05-11.47,42.74-17.69,86.23-52.49,115.19-78.57,33.91-30.54,56.62-57.07,58.87-62.24a7,7,0,0,1,8.48-4.47c2.47.68,61,17.32,96,70.91,44.27,67.72,63.52,116.34,60.56,153-2.79,34.6-24.4,55.55-47.28,77.73-1.73,1.68-3.49,3.38-5.25,5.1-22.46,21.95-81.67,44.36-147.32,55.77C268,449,237.37,453.34,205.07,453.34ZM320.41,88l0,0Z"/><path d="M203.05,617.18h-.39c-38.29-2.12-69.34-33.77-70.64-35.12a7,7,0,0,1-.93-8.54,669.4,669.4,0,0,1,71.63-95.64C212,467.58,221.28,458,228.86,451c10.81-10.05,14.08-11.89,18.4-10.4A7,7,0,0,1,247,453.9c-7.38,5-56.7,51.67-100.95,122.1,8.44,7.46,29.41,23.9,53.34,26.83l46.73-75.34a7,7,0,0,1,11.9,7.38l-49,79A7,7,0,0,1,203.05,617.18Z"/><path d="M343.52,663.8a186.79,186.79,0,0,1-49.25-6.55c-41.77-11.39-65.54-33.54-66.53-34.48a7,7,0,0,1,9.61-10.18h0c.22.21,22.67,21,61.29,31.34C349,657.43,402.22,648,457,615.87L420.28,476a7,7,0,0,1,2.94-7.63l101.72-66.55L497.31,348.1c-60.76,61.55-122,80.3-141.09,84.89a32.38,32.38,0,0,1-2.75,10.48c-3.6,8-12.34,18.68-33.58,24.47a46.1,46.1,0,0,1-12.09,1.68,38.88,38.88,0,0,1-29.22-13.06,7,7,0,0,1,10.94-8.75c.34.41,9.63,11.27,26.69,6.62,28-7.64,26.38-23.59,26-25.7a6.76,6.76,0,0,1,1-5.33,6.89,6.89,0,0,1,4.69-2.94c.74-.13,75.65-13.89,146-89.06A7,7,0,0,1,505.27,333l35,68a7,7,0,0,1-2.39,9.06L435.1,477.28l36.72,140.13a7,7,0,0,1-3.13,7.75c-32.88,20-65.95,32.39-98.3,36.8A200.34,200.34,0,0,1,343.52,663.8Z"/><path d="M321.36,919.69c-39,0-84.86-13.64-136.78-40.76a601.32,601.32,0,0,1-87.39-55.77,7,7,0,0,1-1.36-9.5l121-172a7,7,0,0,1,11.45,8.05L111.15,816.2c26.81,20,150.49,107.3,240.3,86.17,17.74-4.17,38.73-12.56,61-21.44,36.33-14.52,77.06-30.79,112-31.12l-52.48-165a7,7,0,1,1,13.34-4.25l55.5,174.5a7,7,0,0,1-7.3,9.1c-33.65-3.06-77.3,14.38-115.82,29.77-22.72,9.08-44.19,17.65-63,22.07A145.2,145.2,0,0,1,321.36,919.69Z"/><path d="M65.56,573.68a7,7,0,0,1-3.55-13,36.5,36.5,0,0,0,15.15-22.18c3.39-14.53-1.31-31.85-14-51.49C29.9,435.45,7.47,370.28,1.61,308.17c-3.54-37.54-1.24-74.1,6.83-108.66A308.06,308.06,0,0,1,57.34,91.14,205.72,205.72,0,0,1,136,24c25.13-12.23,53.47-19.87,84.25-22.72,51.55-4.77,91.88,5.45,94.49,6.14,34.85,8.39,102,37.78,160.37,140.32,45.38,79.67,46.4,145.16,46.42,147.91a7,7,0,0,1-6.95,7.05h-.05a7,7,0,0,1-7-6.94c0-.63-1.12-64.8-44.58-141.09C407.13,56.62,344.05,28.83,311.42,21l-.16,0c-.39-.1-40.35-10.39-90.15-5.7C155,21.47,103.79,49.72,68.77,99.23-30,238.82,26.18,403.87,74.93,479.39,89.85,502.49,95.16,523.56,90.7,542a50.6,50.6,0,0,1-21.65,30.72A6.91,6.91,0,0,1,65.56,573.68Z"/><path d="M474.06,525.18a7,7,0,0,1-3.38-13.13c36.39-20,44.86-77.75,44.94-78.33a7,7,0,0,1,13.86,1.92c-.36,2.66-9.47,65.25-52.06,88.68A6.92,6.92,0,0,1,474.06,525.18Z"/><path d="M182.86,940.22c-13.76,0-27.13-2.06-34.72-8.63a16.69,16.69,0,0,1-6.08-13.72c1-22.41,23.41-29.54,35.11-30.18a7,7,0,0,1,.78,14c-.94.06-21.21,1.52-21.91,16.83a2.8,2.8,0,0,0,1.27,2.51c6.21,5.38,27.92,7.87,62.43,1.3,10.25-2,16.52-3.24,20.36-4.07a6.92,6.92,0,0,1,4.18-2s1.09-.12,2.19-.2c7.54-.51,9,4,9.34,6,.21,1.44.42,6.29-6,8.24-1.06.32-2.6.71-4.71,1.19-4.69,1.07-12.33,2.61-22.71,4.59C213.46,937.76,197.93,940.22,182.86,940.22Z"/><path d="M484.56,933.08c-27.09,0-56.31-9.24-70.71-25.21a7,7,0,0,1,10.4-9.37c8.41,9.32,25,16.54,44.28,19.31s37.65.63,49.12-5.75c3-1.68,4.1-3.13,4.06-3.69-.25-4.56-14.24-14.44-29.35-20.72a7,7,0,0,1,5.37-12.93c8.68,3.6,37,16.6,38,32.86.27,4.63-1.47,11.3-11.24,16.72C513.67,930.29,499.44,933.08,484.56,933.08Z"/><circle cx="177.05" cy="288.18" r="21.5"/><circle cx="356.05" cy="238.18" r="21.5"/><path d="M315.19,154.05s18.52-22.51,51.16-17.64,37.77,17.94,37.77,17.94S355,131.3,315.19,154.05Z"/><path d="M107,216.27s11-27,43.61-32.05,41.39,5.9,41.39,5.9S138.22,182.72,107,216.27Z"/><path d="M552.34,136.35q-.84,6.93-8,6.05-6.92-.84-6.08-7.76l10.58-87.06q.82-6.8,7.75-6,7.17.87,6.34,7.67l-4.18,34.47,57.37,7,4.19-34.47q.83-6.8,7.87-5.94T634.39,58L623.81,145q-.84,6.92-7.89,6.06t-6.2-7.77l4.71-38.76-57.38-7Z"/><path d="M655.75,155.81q-7.05-.85-6.21-7.77l6.57-54.1q.84-6.8,7.88-5.94t6.09,7.63l-6.57,54.1Q662.67,156.66,655.75,155.81Zm1.35-92A9.5,9.5,0,0,1,668,55.29a9.29,9.29,0,0,1,6.46,3.59,9.51,9.51,0,0,1,2.05,7.27,9.75,9.75,0,0,1-10.85,8.39A9.74,9.74,0,0,1,659,70.93,9.57,9.57,0,0,1,657.1,63.8Z"/><path d="M560.56,362.68a7,7,0,0,1-4.35-12.49l57.5-45.5a7,7,0,0,1,4.34-1.51c38.8,0,64-10,73-28.9,6.9-14.57,2.5-32-5.42-41.66a10.25,10.25,0,0,0-7.45-3.72c-15.85-1.57-42.68,17.29-51.68,24.69a7,7,0,0,1-11.13-3.33c-3.2-10.24-9-19.35-11.52-19.65h0c-.35.34-3.58,4-3.8,20.72a178.71,178.71,0,0,0,1,20,7,7,0,0,1-2.56,6.26l-66.5,53.5a7,7,0,0,1-8.78-10.91l63.56-51.13a187.21,187.21,0,0,1-.67-19.2c.41-18.62,4.32-28.85,12.31-32.18a14.12,14.12,0,0,1,11.69.3c6.94,3.25,12,11.93,15.18,18.91,12.17-8.81,35.87-23.79,54.31-22a24.09,24.09,0,0,1,16.93,8.79c10.37,12.68,17.06,35.78,7.23,56.53-7.86,16.59-28.69,36.32-83.2,36.89l-55.61,44A6.92,6.92,0,0,1,560.56,362.68Z"/><path d="M77.06,711.45c-11.63,0-22.3-3.62-29.93-10.63-10-9.16-13.16-22.54-8.76-36.71,9-29,49.38-34,61.29-34.77l19.54-23.17a7,7,0,1,1,10.7,9l-21.5,25.5a7,7,0,0,1-5.21,2.48c-12.22.28-45.32,5.32-51.45,25.08-2.77,8.92-1.05,16.82,4.86,22.24,8.7,8,23.93,9.24,38.82,3.2,25.14-10.22,31.84-20.44,33.59-25.62a11.63,11.63,0,0,0,0-8.34,7,7,0,0,1,.64-8l24-29a7,7,0,1,1,10.78,8.93L143,657.56a26.26,26.26,0,0,1-.73,15c-4.47,13.24-18.47,24.72-41.58,34.11A63.06,63.06,0,0,1,77.06,711.45Z"/><path d="M635.05,451.68a4.5,4.5,0,0,1-2-8.54c31.81-15.51,52.18-39.85,60.52-72.35a120.87,120.87,0,0,0,3-44.86,4.5,4.5,0,0,1,8.88-1.49c.15.88,3.58,22-3.08,48.23C696.25,397,679.9,430.33,637,451.23A4.43,4.43,0,0,1,635.05,451.68Z"/><path d="M713.05,418.68a4.45,4.45,0,0,1-3.06-1.2,4.5,4.5,0,0,1-.24-6.36c24.24-26.1,17.9-77.84,17.84-78.36a4.5,4.5,0,1,1,8.92-1.15c.3,2.29,7,56.42-20.16,85.64A4.5,4.5,0,0,1,713.05,418.68Z"/><path d="M306.21,378.47c-16.59,0-29.67-9.2-30.31-9.66a5,5,0,0,1,5.81-8.14h0c.15.11,15.27,10.65,31.57,7.05s26.8-24.13,26.91-24.33a5,5,0,0,1,8.93,4.5c-.52,1-12.83,25-33.69,29.59A42.4,42.4,0,0,1,306.21,378.47Z"/>
</symbol>


<symbol id="icon-return"   viewBox="0 0 206.108 206.108"><path d="M152.774,69.886H30.728l24.97-24.97c3.515-3.515,3.515-9.213,0-12.728c-3.516-3.516-9.213-3.515-12.729,0L2.636,72.523
	c-3.515,3.515-3.515,9.213,0,12.728l40.333,40.333c1.758,1.758,4.061,2.636,6.364,2.636c2.303,0,4.606-0.879,6.364-2.636
	c3.515-3.515,3.515-9.213,0-12.728l-24.97-24.97h122.046c19.483,0,35.334,15.851,35.334,35.334s-15.851,35.334-35.334,35.334H78.531
	c-4.971,0-9,4.029-9,9s4.029,9,9,9h74.242c29.408,0,53.334-23.926,53.334-53.334S182.182,69.886,152.774,69.886z"/>
</symbol>

<symbol id="icon-hobby" viewBox="0 0 512 512">
<path d="m354.571 0c-36.459 0-71.588 13.997-98.571 38.86-26.983-24.863-62.112-38.86-98.571-38.86-80.742 0-146.429 65.688-146.429 146.429 0 87.256 75.194 163.603 140.884 213.64v34.931c0 25.127 16.943 46.357 40 52.904.011 35.345 28.769 64.096 64.116 64.096s64.105-28.751 64.116-64.096c23.057-6.547 40-27.777 40-52.904v-34.931c65.69-50.038 140.884-126.384 140.884-213.64 0-80.741-65.688-146.429-146.429-146.429zm-98.571 482c-18.1 0-32.947-14.171-34.044-32h68.088c-1.097 17.829-15.944 32-34.044 32zm74.116-87c0 13.785-11.215 25-25 25h-98.232c-13.785 0-25-11.215-25-25v-27.448h148.232zm-83.352-57.448-52.371-154.978 18.645-9.323 32.355 32.355c5.857 5.858 15.355 5.858 21.213 0l32.355-32.355 18.646 9.323-52.372 154.978zm93.396 0h-43.258l53.308-157.75c2.396-7.094-.805-14.87-7.503-18.219l-40-20c-5.775-2.887-12.749-1.756-17.314 2.81l-29.393 29.394-29.394-29.393c-4.566-4.566-11.541-5.697-17.314-2.81l-40 20c-6.698 3.349-9.9 11.125-7.502 18.219l53.308 157.75h-43.257c-60.647-45.851-130.841-115.305-130.841-191.124 0-64.199 52.229-116.429 116.429-116.429 33.134 0 64.945 14.652 87.278 40.199 2.849 3.259 6.965 5.128 11.293 5.128s8.444-1.869 11.293-5.127c22.333-25.548 54.145-40.2 87.278-40.2 64.2 0 116.429 52.23 116.429 116.429 0 75.818-70.194 145.272-130.84 191.123z"/></symbol>


<symbol id="icon-magic" viewBox="0 0 424.629 424.629">
<path  d="M343,223.508l-54.6-52.6l29.5-70.3c2.1-5.1-0.3-11-5.4-13.1c-2.8-1.2-6-1-8.7,0.5l-66.1,36.2l-56.3-50.5
			c-4.1-3.7-10.4-3.3-14.1,0.8c-2,2.3-2.9,5.4-2.4,8.4l13.3,75.2l-64.8,38.8c-4.7,2.8-6.3,9-3.4,13.7c1.6,2.6,4.2,4.4,7.2,4.8
			l39.3,5.4l-148.1,148c-11.2,11.2-11.2,29.3,0,40.5s29.3,11.2,40.5,0.1c0,0,0,0,0.1-0.1l150.4-150.5l9,41.4
			c0.9,4.2,4.4,7.3,8.6,7.8c0.4,0,0.8,0.1,1.2,0.1c3.8,0,7.4-2.2,9-5.7l32.9-68.7l75,6.9c5.5,0.5,10.4-3.5,10.9-9
			C346.3,228.608,345.2,225.608,343,223.508z M34.7,395.208c-3.4,3.4-8.8,3.4-12.2,0c-3.4-3.4-3.4-8.8,0-12.2l52.2-52.2l12.2,12.2
			L34.7,395.208z M101.1,328.808l-12.2-12.2l92.4-92.4l10.8,1.5l2.2,9.9L101.1,328.808z M255,213.208c-4.2-0.4-8.1,1.9-9.9,5.6
			l-23.3,48.7l-11.5-52.9c-0.9-4.1-4.3-7.2-8.4-7.8l-53.8-7.4l46.3-27.7c3.6-2.1,5.4-6.2,4.7-10.3l-9.4-53.5l40.1,35.9
			c3.2,2.8,7.8,3.4,11.5,1.3l47.2-25.9l-21.1,50.2c-1.6,3.8-0.7,8.2,2.3,11.1l39,37.6L255,213.208z"/>

		<path d="M322.9,320.308l-27.9-40.7c-3-4.6-9.2-5.9-13.8-2.9c-4.6,3-5.9,9.2-2.9,13.8c0.1,0.1,0.2,0.2,0.2,0.4l27.9,40.7
			c3.1,4.6,9.3,5.7,13.9,2.6C324.9,331.108,326,324.908,322.9,320.308z"/>

		<path d="M247.4,6.908c-5.5,0-10,4.5-10,10v48.2c0,5.5,4.5,10,10,10s10-4.5,10-10v-48.2C257.4,11.408,252.9,6.908,247.4,6.908z"/>

		<path d="M424.3,136.508c-1.4-5.2-6.7-8.4-11.9-7.2l-64.3,16.1c-5.4,1.2-8.7,6.6-7.5,12c1.2,5.4,6.6,8.7,12,7.5
			c0.1,0,0.2-0.1,0.3-0.1l64.3-16.1C422.5,147.308,425.7,141.808,424.3,136.508z"/>

		<path d="M115.4,123.208l-47.7-8c-5.5-0.9-10.6,2.8-11.4,8.3c-0.9,5.4,2.7,10.5,8,11.5l47.7,8c0.6,0.1,1.1,0.1,1.7,0.1
			c5.5,0,10-4.5,10-10C123.7,128.208,120.2,124.108,115.4,123.208z"/>
	
</symbol>

<symbol id="icon-sword" enable-background="new 0 0 512 512"  viewBox="0 0 512 512"> <g><path d="m512 151.355-18.995-135.363-136.325-15.992-217.031 263.114-42.609-42.703-63.487 63.843 57.977 58.104-75.384 75.384.003.003c-.038.038-.078.073-.116.111h.001c-21.378 21.496-21.378 56.474 0 77.971 10.37 10.428 24.164 16.173 38.838 16.173s28.469-5.745 38.841-16.173c.038-.038.072-.078.11-.116l.003.003 75.381-75.38 57.619 57.619 63.665-63.665-40.109-40.109zm-308.068 176.184 186.71-186.71 71.806 13.37-233.252 198.659zm274.384-200.866-80.254-15.128-16.184-78.393 84.709 9.938zm-123.626-77.19 14.463 70.058-186.586 186.586-21.662-21.71zm-299.818 432.525c-6.662 0-12.927-2.612-17.643-7.353-9.768-9.823-9.768-25.805 0-35.627v-.001c4.715-4.742 10.981-7.352 17.642-7.352 6.662-.001 12.928 2.611 17.644 7.353 9.768 9.823 9.768 25.805 0 35.627-4.714 4.741-10.98 7.353-17.643 7.353zm52.219-42.121c-2.577-8.061-7.026-15.643-13.378-22.031-6.264-6.299-13.895-10.989-22.096-13.637l40.864-40.864 35.532 35.61zm119.699-4.386-151.117-151.117 21.237-21.356 151.177 151.177z"/></symbol>
















</defs>
</svg>
